<?xml version="1.0" encoding="UTF-8" standalone="no"?>
<!-- Created with Inkscape (http://www.inkscape.org/) -->

<svg
   width="43.078087mm"
   height="31.667953mm"
   viewBox="0 0 43.078087 31.667953"
   version="1.1"
   id="svg351"
   xml:space="preserve"
   inkscape:version="1.2.2 (732a01da63, 2022-12-09)"
   sodipodi:docname="Logos.svg"
   xmlns:inkscape="http://www.inkscape.org/namespaces/inkscape"
   xmlns:sodipodi="http://sodipodi.sourceforge.net/DTD/sodipodi-0.dtd"
   xmlns="http://www.w3.org/2000/svg"
   xmlns:svg="http://www.w3.org/2000/svg"><sodipodi:namedview
     id="namedview353"
     pagecolor="#505050"
     bordercolor="#eeeeee"
     borderopacity="1"
     inkscape:showpageshadow="0"
     inkscape:pageopacity="0"
     inkscape:pagecheckerboard="0"
     inkscape:deskcolor="#505050"
     inkscape:document-units="mm"
     showgrid="false"
     inkscape:zoom="0.50646225"
     inkscape:cx="530.1481"
     inkscape:cy="457.09231"
     inkscape:window-width="1920"
     inkscape:window-height="991"
     inkscape:window-x="-9"
     inkscape:window-y="-9"
     inkscape:window-maximized="1"
     inkscape:current-layer="g11250" /><defs
     id="defs348"><rect
       x="294.19763"
       y="612.08905"
       width="531.93671"
       height="141.49239"
       id="rect11324-3-0-7" /></defs><g
     id="g7659"
     inkscape:export-filename=".\g7659.png"
     inkscape:export-xdpi="96"
     inkscape:export-ydpi="96"
     transform="matrix(0.89357192,0,0,0.89357192,-69.458253,-195.77065)"><g
       id="g1110-0-3-1"
       transform="translate(75.726636,127.28792)"
       inkscape:export-filename="LOGO-Final\svg\logo-vertical-dark.png"
       inkscape:export-xdpi="300"
       inkscape:export-ydpi="300"><g
         id="g11262-8-3-6"
         transform="matrix(0.40475477,0,0,0.40475477,-0.75637362,53.438836)"><rect
           style="fill:#ffffff;fill-opacity:1;stroke:#0074d9;stroke-width:0.132231;stroke-opacity:1"
           id="rect11258-22-3-6"
           width="49.867767"
           height="49.867767"
           x="41.183281"
           y="94.841972"
           ry="14.881882" /><path
           style="fill:#0074d9;fill-opacity:1;stroke:#ffffff;stroke-width:0.00536001;stroke-dasharray:none;stroke-opacity:1"
           d="m 65.414424,134.72038 c -0.37506,-0.0897 -0.40859,-0.57218 -0.2823,-4.06474 0.0661,-1.82647 0.15919,-4.05211 0.20699,-4.94579 0.048,-0.89371 0.0896,-2.40823 0.0925,-3.36559 0.004,-1.72189 0.002,-1.74817 -0.28987,-2.43736 -0.16252,-0.3832 -0.67909,-1.30606 -1.14793,-2.05082 -0.46886,-0.74474 -1.40996,-2.28543 -2.09129,-3.42375 -1.48105,-2.47435 -1.90429,-3.09936 -3.15148,-4.65396 -1.08441,-1.35168 -1.63084,-2.14454 -1.6312,-2.36678 -3e-4,-0.17237 0.44573,-0.50384 1.03944,-0.77258 0.30671,-0.13878 0.44663,-0.15827 0.62001,-0.0863 0.30905,0.12823 0.70992,0.75764 1.16,1.82122 0.51123,1.20815 1.43117,2.82302 2.64311,4.63975 0.55121,0.82627 1.16937,1.77451 1.37367,2.1072 0.71513,1.16442 1.06918,1.45402 1.34984,1.10412 0.16087,-0.20058 0.183,-3.18592 0.0324,-4.37206 -0.12832,-1.01043 -0.34637,-4.98536 -0.32639,-5.94937 0.0202,-0.98867 0.14761,-1.1261 1.04075,-1.12503 0.72318,7.5e-4 1.04026,0.12701 1.12896,0.44917 0.0346,0.12667 0.0129,1.25276 -0.0486,2.50245 -0.31478,6.38521 -0.34873,7.94043 -0.18123,8.29791 0.0873,0.18619 0.20332,0.33851 0.25793,0.33851 0.31978,0 4.34696,-6.39044 5.20825,-8.26464 0.46524,-1.01233 0.74164,-1.42961 1.04498,-1.57761 0.3496,-0.17057 1.76964,0.648 1.64363,0.94743 -0.029,0.0691 -0.61151,0.85786 -1.29426,1.75282 -2.37212,3.10942 -3.44745,4.80795 -6.4891,10.24942 l -0.45023,0.80544 0.0256,4.06931 c 0.0142,2.23809 0.0717,4.69894 0.1279,5.46851 0.0563,0.76956 0.12901,2.09606 0.16172,2.94773 l 0.0594,1.54847 -0.25711,0.2344 c -0.22141,0.20186 -0.33683,0.23296 -0.83098,0.22395 -0.31563,-0.005 -0.65099,-0.0291 -0.74523,-0.0513 z"
           id="path11260-7-1-9" /></g><g
         id="g1594-59-4"
         transform="matrix(0.74990802,0,0,0.74990802,-27.012552,43.918763)"><g
           aria-label="NextTier"
           transform="matrix(0.15400555,0,0,0.15400555,-7.7249195,-4.7110801)"
           id="text11322-54-7-3"
           style="font-size:106.667px;letter-spacing:1.71801px;white-space:pre;shape-inside:url(#rect11324-3-0-7);display:inline;fill:#ffffff;stroke:#ffffff;stroke-width:0.0566929"><path
             d="m 301.45062,636.08992 h 11.20004 l 37.76011,54.6135 v -54.6135 h 12.16004 v 74.6669 h -11.3067 l -37.65345,-54.40017 v 54.40017 h -12.16004 z"
             style="font-weight:600;font-family:'Bai Jamjuree';-inkscape-font-specification:'Bai Jamjuree Semi-Bold'"
             id="path2645" /><path
             d="m 398.10222,711.61015 q -6.50669,0 -11.52004,-2.45334 -4.90668,-2.45334 -7.68002,-6.93335 -2.66667,-4.48002 -2.66667,-10.3467 v -14.29338 q 0,-6.18668 2.66667,-10.88003 2.77334,-4.80002 7.68002,-7.36003 5.01335,-2.66667 11.52004,-2.66667 h 8.53336 q 9.7067,0 15.57338,5.65335 5.86669,5.65335 5.86669,15.04005 v 10.6667 h -39.57346 v 3.84001 q 0,4.26668 2.56001,6.82669 2.66667,2.56001 7.04002,2.56001 h 8.21336 q 4.26668,0 6.82669,-2.02668 2.66667,-2.13334 2.66667,-5.54668 h 12.05337 q 0,8.10669 -5.97335,13.01337 -5.97335,4.90668 -15.68005,4.90668 z m 17.92006,-32.74676 v -1.49334 q 0,-4.69335 -2.56001,-7.57336 -2.56001,-2.88001 -6.72002,-2.88001 h -8.64003 q -4.37335,0 -7.14669,3.09334 -2.66667,2.98668 -2.66667,7.89336 v 0.96001 z"
             style="font-weight:600;font-family:'Bai Jamjuree';-inkscape-font-specification:'Bai Jamjuree Semi-Bold'"
             id="path2647" /><path
             d="m 452.83368,683.6634 -19.41339,-26.13341 h 13.65337 l 12.80004,17.17338 12.80004,-17.17338 h 13.65338 l -19.4134,26.13341 20.16007,27.09342 h -13.76005 l -13.44004,-18.13339 -13.44004,18.13339 h -13.76004 z"
             style="font-weight:600;font-family:'Bai Jamjuree';-inkscape-font-specification:'Bai Jamjuree Semi-Bold'"
             id="path2649" /><path
             d="m 517.27193,710.75682 q -9.06669,0 -13.22671,-4.05335 -4.16001,-4.05334 -4.16001,-12.80004 v -25.81341 h -9.38669 v -10.56003 h 9.70669 v -16.10672 h 11.94671 v 16.10672 h 13.86671 v 10.56003 h -13.86671 v 25.38674 q 0,3.52002 1.38667,5.12002 1.38667,1.60001 4.37334,1.60001 h 8.1067 v 10.56003 z"
             style="font-weight:600;font-family:'Bai Jamjuree';-inkscape-font-specification:'Bai Jamjuree Semi-Bold'"
             id="path2651" /><path
             d="m 548.85656,646.86329 h -23.68007 v -10.77337 h 59.84019 v 10.77337 H 561.3366 v 63.89353 h -12.48004 z"
             style="font-weight:600;font-family:'Bai Jamjuree';-inkscape-font-specification:'Bai Jamjuree Semi-Bold'"
             id="path2653" /><path
             d="m 600.70818,651.55663 q -3.62668,0 -5.86668,-2.13334 -2.13334,-2.24 -2.13334,-5.65335 0,-3.41334 2.13334,-5.54668 2.24,-2.24001 5.86668,-2.24001 3.62668,0 5.86669,2.24001 2.24,2.13334 2.24,5.54668 0,3.41335 -2.24,5.65335 -2.24001,2.13334 -5.86669,2.13334 z m -6.08002,5.97336 h 12.26671 v 53.22683 h -12.26671 z"
             style="font-weight:600;font-family:'Bai Jamjuree';-inkscape-font-specification:'Bai Jamjuree Semi-Bold'"
             id="path2655" /><path
             d="m 643.91958,711.61015 q -6.50669,0 -11.52004,-2.45334 -4.90668,-2.45334 -7.68002,-6.93335 -2.66667,-4.48002 -2.66667,-10.3467 v -14.29338 q 0,-6.18668 2.66667,-10.88003 2.77334,-4.80002 7.68002,-7.36003 5.01335,-2.66667 11.52004,-2.66667 h 8.53336 q 9.7067,0 15.57338,5.65335 5.86669,5.65335 5.86669,15.04005 v 10.6667 h -39.57346 v 3.84001 q 0,4.26668 2.56001,6.82669 2.66667,2.56001 7.04002,2.56001 h 8.21336 q 4.26668,0 6.82669,-2.02668 2.66667,-2.13334 2.66667,-5.54668 h 12.05337 q 0,8.10669 -5.97335,13.01337 -5.97335,4.90668 -15.68005,4.90668 z m 17.92006,-32.74676 v -1.49334 q 0,-4.69335 -2.56001,-7.57336 -2.56001,-2.88001 -6.72002,-2.88001 h -8.64003 q -4.37335,0 -7.14669,3.09334 -2.66667,2.98668 -2.66667,7.89336 v 0.96001 z"
             style="font-weight:600;font-family:'Bai Jamjuree';-inkscape-font-specification:'Bai Jamjuree Semi-Bold'"
             id="path2657" /><path
             d="m 686.59775,657.52999 h 11.41336 v 7.25335 q 2.13334,-3.30668 6.08002,-5.33335 4.05335,-2.13334 8.32003,-2.13334 h 6.40002 v 10.6667 h -6.40002 q -6.08002,0 -9.81336,3.73335 -3.73335,3.73334 -3.73335,9.70669 v 29.33343 h -12.2667 z"
             style="font-weight:600;font-family:'Bai Jamjuree';-inkscape-font-specification:'Bai Jamjuree Semi-Bold'"
             id="path2659" /></g><g
           aria-label="Empowering Education"
           id="text1432-30-7-0"
           style="font-weight:600;font-size:5.64444px;font-family:'Bai Jamjuree';-inkscape-font-specification:'Bai Jamjuree Semi-Bold';letter-spacing:0px;fill:#a6a6a6;stroke:#ffffff;stroke-width:0.015"><path
             d="m 39.215142,106.06002 v 1.31516 h 1.433688 v 0.42333 h -1.433688 v 1.35466 h 1.603021 v 0.42334 h -2.116665 v -3.93982 h 2.116665 v 0.42333 z"
             style="font-weight:normal;font-family:Poppins;-inkscape-font-specification:Poppins"
             id="path2662" /><path
             d="m 45.316785,106.42691 q 0.361244,0 0.643466,0.1524 0.282222,0.14676 0.445911,0.44591 0.163688,0.29916 0.163688,0.72813 v 1.82316 h -0.507999 v -1.74978 q 0,-0.46284 -0.231422,-0.70555 -0.225778,-0.24836 -0.615244,-0.24836 -0.400755,0 -0.637822,0.25964 -0.237066,0.254 -0.237066,0.73943 v 1.70462 h -0.508 v -1.74978 q 0,-0.46284 -0.231422,-0.70555 -0.225778,-0.24836 -0.615244,-0.24836 -0.400755,0 -0.637822,0.25964 -0.237066,0.254 -0.237066,0.73943 v 1.70462 h -0.513644 v -3.09316 h 0.513644 v 0.44592 q 0.1524,-0.24272 0.406399,-0.37254 0.259645,-0.12982 0.570089,-0.12982 0.389466,0 0.688622,0.17498 0.299155,0.17498 0.44591,0.51364 0.129822,-0.32738 0.428978,-0.508 0.299155,-0.18062 0.666044,-0.18062 z"
             style="font-weight:normal;font-family:Poppins;-inkscape-font-specification:Poppins"
             id="path2664" /><path
             d="m 47.92452,107.05344 q 0.1524,-0.26529 0.451556,-0.44026 0.304799,-0.18063 0.705555,-0.18063 0.412044,0 0.745066,0.19756 0.338666,0.19756 0.530577,0.5588 0.191911,0.3556 0.191911,0.82973 0,0.46849 -0.191911,0.83538 -0.191911,0.36689 -0.530577,0.57009 -0.333022,0.2032 -0.745066,0.2032 -0.395111,0 -0.699911,-0.17498 -0.299155,-0.18062 -0.4572,-0.44591 v 2.03764 h -0.513644 v -4.56071 h 0.513644 z m 2.099732,0.9652 q 0,-0.34995 -0.141111,-0.6096 -0.141111,-0.25964 -0.383822,-0.39511 -0.237066,-0.13546 -0.524933,-0.13546 -0.282222,0 -0.524933,0.14111 -0.237066,0.13546 -0.383822,0.40075 -0.141111,0.25965 -0.141111,0.60396 0,0.34995 0.141111,0.61524 0.146756,0.25964 0.383822,0.40076 0.242711,0.13546 0.524933,0.13546 0.287867,0 0.524933,-0.13546 0.242711,-0.14112 0.383822,-0.40076 0.141111,-0.26529 0.141111,-0.62089 z"
             style="font-weight:normal;font-family:Poppins;-inkscape-font-specification:Poppins"
             id="path2666" /><path
             d="m 52.575542,109.62731 q -0.434622,0 -0.790222,-0.19756 -0.349955,-0.19755 -0.553155,-0.5588 -0.197555,-0.36689 -0.197555,-0.84666 0,-0.47414 0.2032,-0.83538 0.208844,-0.36689 0.564444,-0.5588 0.355599,-0.19756 0.795866,-0.19756 0.440266,0 0.795866,0.19756 0.355599,0.19191 0.558799,0.55315 0.208845,0.36125 0.208845,0.84103 0,0.47977 -0.214489,0.84666 -0.208845,0.36125 -0.570089,0.5588 -0.361244,0.19756 -0.80151,0.19756 z m 0,-0.45156 q 0.276577,0 0.519288,-0.12982 0.242711,-0.12982 0.389467,-0.38947 0.1524,-0.25964 0.1524,-0.63217 0,-0.37254 -0.146756,-0.63218 -0.146755,-0.25965 -0.383822,-0.38382 -0.237066,-0.12982 -0.513644,-0.12982 -0.282222,0 -0.519288,0.12982 -0.231422,0.12417 -0.372533,0.38382 -0.141111,0.25964 -0.141111,0.63218 0,0.37817 0.135466,0.63782 0.141111,0.25964 0.372533,0.38946 0.231422,0.12418 0.508,0.12418 z"
             style="font-weight:normal;font-family:Poppins;-inkscape-font-specification:Poppins"
             id="path2668" /><path
             d="m 58.9594,106.48335 -0.965199,3.09316 h -0.530577 l -0.745067,-2.45533 -0.745066,2.45533 h -0.530577 l -0.970844,-3.09316 h 0.524933 l 0.7112,2.59645 0.767643,-2.59645 h 0.524933 l 0.750711,2.60209 0.699911,-2.60209 z"
             style="font-weight:normal;font-family:Poppins;-inkscape-font-specification:Poppins"
             id="path2670" /><path
             d="m 62.289618,107.9114 q 0,0.14675 -0.01693,0.31044 H 59.80042 q 0.02822,0.4572 0.310444,0.71685 0.287866,0.254 0.694266,0.254 0.333022,0 0.553155,-0.1524 0.225778,-0.15805 0.316089,-0.41769 h 0.553155 q -0.124178,0.44591 -0.496711,0.72813 -0.372533,0.27658 -0.925688,0.27658 -0.440266,0 -0.790222,-0.19756 -0.34431,-0.19755 -0.541866,-0.5588 -0.197555,-0.36689 -0.197555,-0.84666 0,-0.47978 0.191911,-0.84103 0.191911,-0.36124 0.536222,-0.55315 0.349955,-0.19756 0.80151,-0.19756 0.440266,0 0.778933,0.19192 0.338666,0.19191 0.519288,0.53057 0.186267,0.33302 0.186267,0.75636 z m -0.530578,-0.10725 q 0,-0.29351 -0.129822,-0.50235 -0.129822,-0.21449 -0.355599,-0.32173 -0.220134,-0.11289 -0.491067,-0.11289 -0.389466,0 -0.666044,0.24835 -0.270933,0.24836 -0.310444,0.68862 z"
             style="font-weight:normal;font-family:Poppins;-inkscape-font-specification:Poppins"
             id="path2672" /><path
             d="m 63.480601,106.98571 q 0.135467,-0.26529 0.383822,-0.41204 0.254,-0.14676 0.615244,-0.14676 v 0.53058 h -0.135466 q -0.8636,0 -0.8636,0.93697 v 1.68205 h -0.513644 v -3.09316 h 0.513644 z"
             style="font-weight:normal;font-family:Poppins;-inkscape-font-specification:Poppins"
             id="path2674" /><path
             d="m 65.337617,105.981 q -0.146755,0 -0.248355,-0.1016 -0.1016,-0.1016 -0.1016,-0.24836 0,-0.14675 0.1016,-0.24835 0.1016,-0.1016 0.248355,-0.1016 0.141111,0 0.237067,0.1016 0.1016,0.1016 0.1016,0.24835 0,0.14676 -0.1016,0.24836 -0.09596,0.1016 -0.237067,0.1016 z m 0.248356,0.50235 v 3.09316 h -0.513644 v -3.09316 z"
             style="font-weight:normal;font-family:Poppins;-inkscape-font-specification:Poppins"
             id="path2676" /><path
             d="m 67.967927,106.42691 q 0.564444,0 0.914399,0.34431 0.349955,0.33867 0.349955,0.98213 v 1.82316 h -0.507999 v -1.74978 q 0,-0.46284 -0.231422,-0.70555 -0.231422,-0.24836 -0.632178,-0.24836 -0.406399,0 -0.64911,0.254 -0.237067,0.254 -0.237067,0.73942 v 1.71027 h -0.513644 v -3.09316 h 0.513644 v 0.44027 q 0.1524,-0.23707 0.412044,-0.36689 0.265289,-0.12982 0.581378,-0.12982 z"
             style="font-weight:normal;font-family:Poppins;-inkscape-font-specification:Poppins"
             id="path2678" /><path
             d="m 71.348943,106.43255 q 0.400755,0 0.699911,0.17498 0.304799,0.17498 0.451555,0.44027 v -0.56445 h 0.519288 v 3.16089 q 0,0.42333 -0.180622,0.75071 -0.180622,0.33302 -0.519288,0.51929 -0.333022,0.18627 -0.778933,0.18627 -0.6096,0 -1.015999,-0.28787 -0.4064,-0.28787 -0.479778,-0.78458 h 0.508 q 0.08467,0.28222 0.349955,0.45156 0.265289,0.17498 0.637822,0.17498 0.423333,0 0.688622,-0.26529 0.270933,-0.26529 0.270933,-0.74507 v -0.64911 q -0.1524,0.27093 -0.451555,0.45156 -0.299156,0.18062 -0.699911,0.18062 -0.412044,0 -0.750711,-0.2032 -0.333022,-0.2032 -0.524933,-0.57009 -0.19191,-0.36689 -0.19191,-0.83538 0,-0.47413 0.19191,-0.82973 0.191911,-0.36124 0.524933,-0.5588 0.338667,-0.19756 0.750711,-0.19756 z m 1.151466,1.59174 q 0,-0.34996 -0.141111,-0.6096 -0.141111,-0.25965 -0.383822,-0.39511 -0.237067,-0.14111 -0.524933,-0.14111 -0.287867,0 -0.524933,0.13546 -0.237067,0.13547 -0.378178,0.39511 -0.141111,0.25965 -0.141111,0.6096 0,0.3556 0.141111,0.62089 0.141111,0.25964 0.378178,0.40076 0.237066,0.13546 0.524933,0.13546 0.287866,0 0.524933,-0.13546 0.242711,-0.14112 0.383822,-0.40076 0.141111,-0.26529 0.141111,-0.61524 z"
             style="font-weight:normal;font-family:Poppins;-inkscape-font-specification:Poppins"
             id="path2680" /><path
             d="m 75.909657,106.06002 v 1.31516 h 1.433688 v 0.42333 h -1.433688 v 1.35466 h 1.603021 v 0.42334 h -2.116665 v -3.93982 h 2.116665 v 0.42333 z"
             style="font-weight:normal;font-family:Poppins;-inkscape-font-specification:Poppins"
             id="path2682" /><path
             d="m 78.099702,108.01864 q 0,-0.47413 0.191911,-0.82973 0.191911,-0.36124 0.524933,-0.5588 0.338666,-0.19756 0.756355,-0.19756 0.361244,0 0.671688,0.16934 0.310444,0.16369 0.474133,0.43462 v -1.63689 h 0.519288 v 4.17689 h -0.519288 v -0.58138 q -0.1524,0.27658 -0.451555,0.4572 -0.299156,0.17498 -0.699911,0.17498 -0.412044,0 -0.75071,-0.2032 -0.333022,-0.2032 -0.524933,-0.57009 -0.191911,-0.36689 -0.191911,-0.83538 z m 2.61902,0.006 q 0,-0.34996 -0.141111,-0.6096 -0.141111,-0.25965 -0.383822,-0.39511 -0.237066,-0.14111 -0.524933,-0.14111 -0.287866,0 -0.524933,0.13546 -0.237066,0.13547 -0.378177,0.39511 -0.141111,0.25965 -0.141111,0.6096 0,0.3556 0.141111,0.62089 0.141111,0.25964 0.378177,0.40076 0.237067,0.13546 0.524933,0.13546 0.287867,0 0.524933,-0.13546 0.242711,-0.14112 0.383822,-0.40076 0.141111,-0.26529 0.141111,-0.61524 z"
             style="font-weight:normal;font-family:Poppins;-inkscape-font-specification:Poppins"
             id="path2684" /><path
             d="m 84.850454,106.48335 v 3.09316 H 84.33681 v -0.4572 q -0.146756,0.23706 -0.412044,0.37253 -0.259644,0.12982 -0.575733,0.12982 -0.361244,0 -0.649111,-0.14675 -0.287866,-0.1524 -0.457199,-0.45156 -0.163689,-0.29915 -0.163689,-0.72813 v -1.81187 h 0.507999 v 1.74414 q 0,0.4572 0.231422,0.70555 0.231423,0.24271 0.632178,0.24271 0.412044,0 0.64911,-0.254 0.237067,-0.254 0.237067,-0.73942 v -1.69898 z"
             style="font-weight:normal;font-family:Poppins;-inkscape-font-specification:Poppins"
             id="path2686" /><path
             d="m 85.527783,108.02429 q 0,-0.47978 0.191911,-0.83538 0.191911,-0.36124 0.530578,-0.5588 0.34431,-0.19756 0.784577,-0.19756 0.570088,0 0.936977,0.27658 0.372533,0.27658 0.491066,0.76765 h -0.553155 q -0.07902,-0.28223 -0.310444,-0.44591 -0.225778,-0.16369 -0.564444,-0.16369 -0.440267,0 -0.7112,0.3048 -0.270933,0.29915 -0.270933,0.85231 0,0.5588 0.270933,0.8636 0.270933,0.3048 0.7112,0.3048 0.338666,0 0.564444,-0.15805 0.225777,-0.15804 0.310444,-0.45155 h 0.553155 q -0.124178,0.47413 -0.496711,0.762 -0.372533,0.28222 -0.931332,0.28222 -0.440267,0 -0.784577,-0.19756 -0.338667,-0.19755 -0.530578,-0.5588 -0.191911,-0.36124 -0.191911,-0.84666 z"
             style="font-weight:normal;font-family:Poppins;-inkscape-font-specification:Poppins"
             id="path2688" /><path
             d="m 88.953961,108.01864 q 0,-0.47413 0.191911,-0.82973 0.191911,-0.36124 0.524933,-0.5588 0.338667,-0.19756 0.750711,-0.19756 0.406399,0 0.705555,0.17498 0.299155,0.17498 0.44591,0.44027 v -0.56445 h 0.519289 v 3.09316 h -0.519289 v -0.57574 q -0.152399,0.27094 -0.457199,0.45156 -0.299156,0.17498 -0.699911,0.17498 -0.412044,0 -0.745066,-0.2032 -0.333022,-0.2032 -0.524933,-0.57009 -0.191911,-0.36689 -0.191911,-0.83538 z m 2.61902,0.006 q 0,-0.34996 -0.141111,-0.6096 -0.141111,-0.25965 -0.383821,-0.39511 -0.237067,-0.14111 -0.524933,-0.14111 -0.287867,0 -0.524933,0.13546 -0.237067,0.13547 -0.378178,0.39511 -0.141111,0.25965 -0.141111,0.6096 0,0.3556 0.141111,0.62089 0.141111,0.25964 0.378178,0.40076 0.237066,0.13546 0.524933,0.13546 0.287866,0 0.524933,-0.13546 0.24271,-0.14112 0.383821,-0.40076 0.141111,-0.26529 0.141111,-0.61524 z"
             style="font-weight:normal;font-family:Poppins;-inkscape-font-specification:Poppins"
             id="path2690" /><path
             d="m 93.588052,106.90669 v 1.82315 q 0,0.22578 0.09596,0.32173 0.09595,0.0903 0.333022,0.0903 h 0.378177 v 0.43462 h -0.462844 q -0.428977,0 -0.643466,-0.19756 -0.214489,-0.19755 -0.214489,-0.64911 v -1.82315 h -0.400755 v -0.42334 h 0.400755 v -0.77893 h 0.513644 v 0.77893 h 0.807155 v 0.42334 z"
             style="font-weight:normal;font-family:Poppins;-inkscape-font-specification:Poppins"
             id="path2692" /><path
             d="m 95.281385,105.981 q -0.146756,0 -0.248355,-0.1016 -0.1016,-0.1016 -0.1016,-0.24836 0,-0.14675 0.1016,-0.24835 0.101599,-0.1016 0.248355,-0.1016 0.141111,0 0.237066,0.1016 0.1016,0.1016 0.1016,0.24835 0,0.14676 -0.1016,0.24836 -0.09596,0.1016 -0.237066,0.1016 z m 0.248355,0.50235 v 3.09316 h -0.513644 v -3.09316 z"
             style="font-weight:normal;font-family:Poppins;-inkscape-font-specification:Poppins"
             id="path2694" /><path
             d="m 97.753652,109.62731 q -0.434622,0 -0.790222,-0.19756 -0.349955,-0.19755 -0.553155,-0.5588 -0.197555,-0.36689 -0.197555,-0.84666 0,-0.47414 0.2032,-0.83538 0.208844,-0.36689 0.564444,-0.5588 0.355599,-0.19756 0.795866,-0.19756 0.440266,0 0.795866,0.19756 0.3556,0.19191 0.558799,0.55315 0.208845,0.36125 0.208845,0.84103 0,0.47977 -0.214489,0.84666 -0.208844,0.36125 -0.570089,0.5588 -0.361244,0.19756 -0.80151,0.19756 z m 0,-0.45156 q 0.276578,0 0.519288,-0.12982 0.242711,-0.12982 0.389467,-0.38947 0.1524,-0.25964 0.1524,-0.63217 0,-0.37254 -0.146756,-0.63218 -0.146755,-0.25965 -0.383822,-0.38382 -0.237066,-0.12982 -0.513644,-0.12982 -0.282222,0 -0.519288,0.12982 -0.231422,0.12417 -0.372533,0.38382 -0.141111,0.25964 -0.141111,0.63218 0,0.37817 0.135466,0.63782 0.141111,0.25964 0.372533,0.38946 0.231422,0.12418 0.508,0.12418 z"
             style="font-weight:normal;font-family:Poppins;-inkscape-font-specification:Poppins"
             id="path2696" /><path
             d="m 101.52413,106.42691 q 0.56445,0 0.9144,0.34431 0.34996,0.33867 0.34996,0.98213 v 1.82316 h -0.508 v -1.74978 q 0,-0.46284 -0.23142,-0.70555 -0.23142,-0.24836 -0.63218,-0.24836 -0.4064,0 -0.64911,0.254 -0.23707,0.254 -0.23707,0.73942 v 1.71027 h -0.51364 v -3.09316 h 0.51364 v 0.44027 q 0.1524,-0.23707 0.41205,-0.36689 0.26529,-0.12982 0.58137,-0.12982 z"
             style="font-weight:normal;font-family:Poppins;-inkscape-font-specification:Poppins"
             id="path2698" /></g></g></g></g></svg>
