<?xml version="1.0" encoding="UTF-8" standalone="no"?>
<!-- Created with Inkscape (http://www.inkscape.org/) -->

<svg
   width="44.678589mm"
   height="44.678593mm"
   viewBox="0 0 44.678589 44.678593"
   version="1.1"
   id="svg351"
   xml:space="preserve"
   inkscape:version="1.2.2 (732a01da63, 2022-12-09)"
   sodipodi:docname="Logos.svg"
   xmlns:inkscape="http://www.inkscape.org/namespaces/inkscape"
   xmlns:sodipodi="http://sodipodi.sourceforge.net/DTD/sodipodi-0.dtd"
   xmlns="http://www.w3.org/2000/svg"
   xmlns:svg="http://www.w3.org/2000/svg"><sodipodi:namedview
     id="namedview353"
     pagecolor="#505050"
     bordercolor="#eeeeee"
     borderopacity="1"
     inkscape:showpageshadow="0"
     inkscape:pageopacity="0"
     inkscape:pagecheckerboard="0"
     inkscape:deskcolor="#505050"
     inkscape:document-units="mm"
     showgrid="false"
     inkscape:zoom="0.71624578"
     inkscape:cx="145.89964"
     inkscape:cy="358.81538"
     inkscape:window-width="1592"
     inkscape:window-height="1020"
     inkscape:window-x="106"
     inkscape:window-y="23"
     inkscape:window-maximized="0"
     inkscape:current-layer="g7659" /><defs
     id="defs348" /><g
     id="g7659"
     inkscape:export-filename=".\g7659.png"
     inkscape:export-xdpi="96"
     inkscape:export-ydpi="96"
     transform="matrix(0.89357192,0,0,0.89357192,-38.541244,-30.211231)"><g
       id="g11250"
       transform="translate(2.0144968,-60.966348)"
       inkscape:export-filename="LOGO-Final\svg\g11250.png"
       inkscape:export-xdpi="96"
       inkscape:export-ydpi="96"><rect
         style="fill:#0074d9;fill-opacity:1;stroke:#0074d9;stroke-width:0.132231;stroke-opacity:1"
         id="rect409"
         width="49.867767"
         height="49.867767"
         x="41.183281"
         y="94.841972"
         ry="14.881882" /><path
         style="fill:#ffffff;fill-opacity:1;stroke:#ffffff;stroke-width:0.00536001;stroke-dasharray:none;stroke-opacity:1"
         d="m 65.414424,134.72038 c -0.37506,-0.0897 -0.40859,-0.57218 -0.2823,-4.06474 0.0661,-1.82647 0.15919,-4.05211 0.20699,-4.94579 0.048,-0.89371 0.0896,-2.40823 0.0925,-3.36559 0.004,-1.72189 0.002,-1.74817 -0.28987,-2.43736 -0.16252,-0.3832 -0.67909,-1.30606 -1.14793,-2.05082 -0.46886,-0.74474 -1.40996,-2.28543 -2.09129,-3.42375 -1.48105,-2.47435 -1.90429,-3.09936 -3.15148,-4.65396 -1.08441,-1.35168 -1.63084,-2.14454 -1.6312,-2.36678 -3e-4,-0.17237 0.44573,-0.50384 1.03944,-0.77258 0.30671,-0.13878 0.44663,-0.15827 0.62001,-0.0863 0.30905,0.12823 0.70992,0.75764 1.16,1.82122 0.51123,1.20815 1.43117,2.82302 2.64311,4.63975 0.55121,0.82627 1.16937,1.77451 1.37367,2.1072 0.71513,1.16442 1.06918,1.45402 1.34984,1.10412 0.16087,-0.20058 0.183,-3.18592 0.0324,-4.37206 -0.12832,-1.01043 -0.34637,-4.98536 -0.32639,-5.94937 0.0202,-0.98867 0.14761,-1.1261 1.04075,-1.12503 0.72318,7.5e-4 1.04026,0.12701 1.12896,0.44917 0.0346,0.12667 0.0129,1.25276 -0.0486,2.50245 -0.31478,6.38521 -0.34873,7.94043 -0.18123,8.29791 0.0873,0.18619 0.20332,0.33851 0.25793,0.33851 0.31978,0 4.34696,-6.39044 5.20825,-8.26464 0.46524,-1.01233 0.74164,-1.42961 1.04498,-1.57761 0.3496,-0.17057 1.76964,0.648 1.64363,0.94743 -0.029,0.0691 -0.61151,0.85786 -1.29426,1.75282 -2.37212,3.10942 -3.44745,4.80795 -6.4891,10.24942 l -0.45023,0.80544 0.0256,4.06931 c 0.0142,2.23809 0.0717,4.69894 0.1279,5.46851 0.0563,0.76956 0.12901,2.09606 0.16172,2.94773 l 0.0594,1.54847 -0.25711,0.2344 c -0.22141,0.20186 -0.33683,0.23296 -0.83098,0.22395 -0.31563,-0.005 -0.65099,-0.0291 -0.74523,-0.0513 z"
         id="path10076-6" /></g></g></svg>
